<?xml version="1.0" standalone="no"?>
<!DOCTYPE svg PUBLIC "-//W3C//DTD SVG 20010904//EN"
 "http://www.w3.org/TR/2001/REC-SVG-20010904/DTD/svg10.dtd">
<svg version="1.0" xmlns="http://www.w3.org/2000/svg"
 width="1024.000000pt" height="1024.000000pt" viewBox="0 0 1024.000000 1024.000000"
 preserveAspectRatio="xMidYMid meet">

<g transform="translate(0.000000,1024.000000) scale(0.100000,-0.100000)"
fill="#000000" stroke="none">
<path d="M4860 9244 c-513 -37 -1044 -177 -1497 -394 -320 -153 -589 -324
-888 -564 -128 -102 -406 -380 -517 -516 -544 -669 -871 -1471 -948 -2325 -13
-143 -13 -619 0 -760 50 -535 200 -1077 421 -1517 32 -65 59 -121 59 -126 0
-5 -30 -37 -66 -73 -36 -35 -72 -76 -79 -91 -13 -23 -13 -29 3 -48 13 -16 24
-21 40 -16 27 9 472 453 472 472 0 30 -36 11 -128 -71 -53 -46 -100 -81 -103
-77 -4 4 -26 54 -49 112 l-42 105 69 64 c37 35 169 163 293 285 450 441 996
971 1255 1216 61 57 155 148 210 200 90 87 344 325 500 469 97 89 172 151 185
151 6 0 8 5 5 10 -4 6 -2 9 2 8 5 -2 21 10 35 26 19 22 27 26 33 16 5 -9 4
-11 -3 -6 -8 5 -10 1 -5 -10 5 -14 3 -16 -12 -10 -11 4 -16 4 -12 0 4 -4 -7
-20 -25 -36 -17 -15 -30 -30 -27 -32 8 -8 219 185 214 195 -3 5 0 6 8 4 8 -4
35 17 65 49 29 30 58 58 65 62 25 16 -158 -203 -260 -308 -58 -61 -63 -68 -51
-87 15 -24 24 -27 30 -9 3 8 7 6 10 -4 5 -12 1 -15 -18 -13 -13 1 -24 -2 -24
-6 0 -5 14 -9 30 -9 17 0 30 -5 30 -12 0 -10 3 -9 9 1 6 9 18 11 34 7 19 -4
29 -1 36 11 8 15 11 15 28 3 15 -12 16 -12 6 0 -21 23 -15 30 26 30 27 0 41 5
45 17 6 14 8 14 21 -3 13 -18 31 -2 282 247 147 146 296 292 331 324 60 56 63
58 88 44 l26 -13 -164 -160 c-422 -412 -908 -885 -1048 -1021 -85 -82 -254
-246 -375 -364 -121 -118 -285 -278 -365 -355 -211 -204 -503 -489 -760 -741
-124 -121 -340 -332 -481 -468 -141 -136 -260 -257 -265 -267 -5 -11 -94 -106
-199 -212 -237 -241 -459 -478 -448 -478 14 0 248 212 465 422 114 109 211
197 216 194 5 -3 22 -27 38 -53 l30 -49 -319 -324 c-291 -297 -399 -413 -342
-370 55 41 321 279 580 519 l130 120 47 -49 c26 -28 52 -50 59 -50 6 0 78 64
158 142 217 212 327 317 521 498 262 245 450 433 443 443 -3 6 -1 7 5 4 15
-10 250 226 265 265 10 27 -22 39 -51 20 -18 -11 -20 -17 -10 -24 9 -5 5 -7
-11 -6 -13 2 -26 -3 -29 -11 -3 -9 0 -11 8 -6 8 5 11 4 6 -3 -4 -6 -12 -9 -19
-6 -7 2 -32 -15 -55 -38 -23 -24 -48 -48 -56 -55 -30 -25 -355 -320 -458 -415
-59 -54 -127 -115 -151 -136 -24 -20 -73 -62 -108 -92 -146 -127 -120 -97 232
265 414 426 559 582 559 600 0 4 -7 -1 -16 -9 -8 -9 -45 -35 -82 -59 -79 -51
-207 -165 -680 -606 -161 -149 -312 -274 -321 -265 -3 2 35 45 85 95 100 102
830 811 1078 1048 88 85 226 218 306 295 80 78 260 252 400 386 140 135 323
310 405 390 168 163 331 320 703 679 246 237 253 243 272 226 20 -18 80 -106
80 -117 0 -4 -19 -16 -42 -27 -58 -28 -202 -154 -264 -232 -172 -215 -266
-464 -251 -667 7 -98 30 -140 92 -174 156 -85 447 -73 645 27 37 18 82 46 99
61 27 22 34 25 42 13 8 -11 9 -10 7 5 -2 11 8 27 24 39 26 19 29 20 46 4 17
-16 20 -15 43 11 l24 27 -26 -23 c-24 -21 -39 -21 -39 0 0 5 5 6 10 3 6 -3 10
-2 10 4 0 5 -6 11 -12 14 -7 2 -1 4 14 4 25 0 71 38 81 66 2 7 7 9 11 6 3 -3
-3 -17 -14 -32 -34 -42 -22 -43 22 -2 l42 40 -38 -45 c-71 -83 -190 -190 -200
-180 -6 6 -14 10 -20 10 -5 0 -1 -7 10 -15 16 -12 17 -16 4 -24 -8 -5 -18 -7
-24 -4 -5 3 -6 2 -3 -4 8 -13 -66 -80 -83 -75 -8 3 -10 0 -5 -8 9 -15 -61 -83
-77 -74 -6 4 -8 3 -5 -3 8 -13 -17 -36 -27 -25 -4 4 -6 2 -4 -3 5 -17 -139
-158 -153 -149 -7 4 -10 3 -6 -3 11 -18 -388 -387 -406 -376 -6 3 -7 2 -4 -4
4 -6 -19 -34 -51 -64 -31 -29 -89 -82 -127 -118 -39 -37 -109 -102 -155 -145
-47 -44 -119 -111 -160 -151 -241 -229 -378 -353 -384 -348 -3 3 -6 21 -6 39
0 44 -9 64 -29 64 -10 0 -78 -59 -152 -131 -151 -146 -198 -178 -235 -158 -13
7 -24 15 -24 19 0 3 72 78 161 165 88 88 178 179 199 202 21 24 61 52 92 66
70 31 108 76 108 127 0 29 -6 41 -25 54 -34 22 -61 20 -111 -9 -35 -20 -46
-35 -63 -81 -18 -47 -42 -76 -155 -187 -73 -73 -141 -138 -152 -146 -10 -8
-32 -26 -47 -40 -24 -22 -27 -23 -21 -6 4 11 15 29 25 40 19 21 26 48 33 120
3 34 13 48 64 95 33 30 124 115 201 188 77 72 144 132 148 132 4 0 37 28 73
61 36 33 90 81 120 107 30 26 69 63 87 82 31 34 31 35 12 53 -24 22 -28 20
-121 -68 -41 -38 -94 -88 -119 -109 -49 -43 -222 -201 -281 -257 -21 -20 -35
-38 -32 -41 3 -4 -5 -9 -18 -13 -13 -4 -40 -20 -60 -35 -29 -21 -35 -29 -25
-39 9 -10 8 -11 -5 -6 -12 5 -20 1 -24 -9 -5 -13 -9 -14 -20 -5 -12 9 -13 9
-9 -3 6 -16 -20 -32 -36 -23 -5 4 -6 -2 -2 -11 5 -13 3 -16 -10 -11 -9 3 -21
-1 -29 -11 -7 -9 -8 -13 -2 -9 7 4 14 0 18 -8 3 -8 0 -17 -6 -21 -7 -4 -8 -3
-4 4 4 7 3 12 -3 12 -5 0 -13 -5 -16 -10 -4 -6 -10 -8 -15 -5 -5 3 -21 -12
-37 -32 -15 -21 -36 -45 -47 -53 -10 -8 -46 -42 -80 -75 -33 -33 -52 -50 -42
-37 29 33 14 27 -20 -10 -16 -17 -23 -27 -15 -23 10 5 12 4 7 -4 -4 -6 -11 -9
-15 -7 -12 8 -62 -44 -55 -56 4 -7 2 -8 -4 -4 -13 8 -40 -18 -235 -226 -144
-154 -197 -217 -121 -147 27 25 126 117 219 205 94 87 255 237 358 332 103 94
183 172 178 172 -6 0 -13 -4 -16 -10 -3 -5 -12 -10 -18 -10 -7 0 4 14 23 31
19 17 36 26 38 20 2 -6 8 -9 13 -5 17 10 9 -13 -11 -31 -12 -10 -18 -25 -15
-32 2 -8 1 -12 -4 -9 -5 3 -14 0 -20 -8 -7 -8 -8 -16 -4 -18 4 -3 3 -4 -3 -2
-7 1 -26 -12 -43 -30 -31 -32 -42 -54 -19 -40 7 4 8 3 4 -5 -4 -6 -11 -9 -16
-6 -13 8 -191 -155 -183 -167 3 -6 2 -8 -4 -5 -13 8 -186 -167 -176 -178 4 -4
3 -5 -3 -2 -13 8 -37 -16 -27 -26 3 -4 0 -7 -7 -7 -7 0 -23 -10 -36 -22 -13
-13 -37 -34 -53 -48 -16 -13 -27 -29 -24 -34 4 -5 1 -6 -5 -2 -10 6 -53 -30
-192 -160 -30 -29 -86 -76 -123 -106 -38 -29 -137 -119 -220 -199 -84 -80
-183 -175 -221 -212 -56 -53 -67 -69 -58 -80 7 -8 9 -17 5 -20 -3 -4 1 -7 9
-7 9 0 18 -9 21 -21 4 -13 10 -18 18 -13 7 4 10 3 5 -4 -3 -6 20 -40 53 -75
l60 -63 -141 -140 c-180 -178 -489 -506 -483 -512 10 -10 492 421 648 579 15
16 29 29 31 29 1 0 22 -18 46 -40 24 -22 47 -40 52 -40 4 0 8 -5 8 -11 0 -6
-136 -149 -301 -317 -313 -319 -447 -462 -433 -462 21 0 494 406 697 598 60
56 113 102 118 102 5 0 44 -25 86 -56 l76 -57 -162 -156 c-156 -149 -163 -157
-159 -191 2 -30 7 -35 31 -38 23 -3 51 19 198 160 93 90 172 163 174 163 13 0
135 -82 135 -91 0 -6 -36 -45 -81 -87 -68 -63 -80 -79 -77 -102 2 -18 11 -31
26 -36 20 -8 37 4 125 85 l103 93 139 -73 c623 -327 1343 -491 2065 -471 1064
29 2022 439 2794 1197 468 459 804 982 1006 1565 64 187 142 487 174 678 87
503 83 1076 -10 1552 -67 345 -163 645 -314 983 l-72 162 32 68 c123 257 218
597 251 897 24 215 9 661 -23 701 -5 7 -59 21 -121 33 -483 89 -987 55 -1509
-103 l-116 -36 -129 76 c-475 279 -984 447 -1578 520 -125 15 -637 27 -765 18z
m63 -241 c-13 -2 -35 -2 -50 0 -16 2 -5 4 22 4 28 0 40 -2 28 -4z m274 1 c-3
-3 -12 -4 -19 -1 -8 3 -5 6 6 6 11 1 17 -2 13 -5z m131 -1 c-10 -2 -28 -2 -40
0 -13 2 -5 4 17 4 22 1 32 -1 23 -4z m65 0 c-7 -2 -19 -2 -25 0 -7 3 -2 5 12
5 14 0 19 -2 13 -5z m-575 -10 c-16 -2 -40 -2 -55 0 -16 2 -3 4 27 4 30 0 43
-2 28 -4z m619 1 c-3 -3 -12 -4 -19 -1 -8 3 -5 6 6 6 11 1 17 -2 13 -5z m76
-1 c-7 -2 -19 -2 -25 0 -7 3 -2 5 12 5 14 0 19 -2 13 -5z m-850 -10 c-7 -2
-19 -2 -25 0 -7 3 -2 5 12 5 14 0 19 -2 13 -5z m-136 -19 c-3 -3 -12 -4 -19
-1 -8 3 -5 6 6 6 11 1 17 -2 13 -5z m-72 -15 c-51 -10 -92 -10 -50 1 17 4 44
8 60 8 25 0 24 -2 -10 -9z m-132 -26 c-7 -2 -19 -2 -25 0 -7 3 -2 5 12 5 14 0
19 -2 13 -5z m-56 -9 c-3 -3 -12 -4 -19 -1 -8 3 -5 6 6 6 11 1 17 -2 13 -5z
m2163 -82 c0 -10 -10 -36 -22 -59 -13 -23 -38 -69 -56 -103 -38 -71 -63 -84
-137 -75 -56 7 -88 -1 -78 -19 3 -6 -4 -1 -16 12 -21 21 -41 29 -41 16 0 -3
23 -31 51 -62 28 -32 56 -67 61 -78 22 -48 -42 -182 -103 -214 -20 -11 -20
-12 26 123 15 43 25 88 21 100 -3 13 -31 55 -62 95 -31 40 -54 76 -51 79 4 3
48 7 99 10 155 7 146 2 223 103 38 50 73 90 77 90 4 0 8 -8 8 -18z m-1090 -14
c0 -13 -3 -40 -6 -60 l-7 -37 -121 -3 -121 -3 -3 -42 -3 -43 106 0 106 0 -3
-52 -3 -53 -107 -3 -108 -3 0 -44 0 -45 110 0 110 0 0 -59 0 -59 -187 -4
c-104 -2 -190 -3 -192 -1 -4 3 17 427 25 491 l5 42 200 0 199 0 0 -22z m-510
-52 l0 -64 -115 -12 -115 -12 0 -46 0 -45 89 6 c48 4 96 9 105 13 14 5 16 -2
16 -54 l0 -59 -37 -6 c-21 -3 -66 -9 -101 -13 l-62 -7 6 -92 c4 -51 3 -95 -2
-98 -5 -3 -39 -8 -75 -12 l-66 -7 -6 73 c-15 187 -30 449 -26 454 6 6 297 42
352 44 l37 1 0 -64z m768 49 c158 -20 193 -29 232 -61 62 -52 77 -131 41 -209
-16 -37 -64 -88 -91 -97 -6 -2 -1 -33 15 -83 35 -112 37 -108 -42 -99 -38 3
-71 12 -76 18 -4 6 -17 43 -28 83 -20 67 -23 72 -55 78 -19 3 -38 4 -43 1 -5
-3 -12 -31 -16 -62 -10 -86 -8 -84 -87 -84 l-71 0 6 53 c18 154 72 477 80 477
5 0 66 -7 135 -15z m-1260 -117 l-3 -62 -102 -24 -103 -23 0 -32 c0 -59 7 -62
109 -42 51 10 94 15 97 13 2 -3 7 -28 11 -56 l6 -50 -81 -18 c-45 -9 -86 -21
-93 -25 -10 -6 -10 -26 0 -94 7 -47 11 -88 8 -91 -2 -2 -34 -13 -70 -23 l-66
-19 -16 71 c-55 254 -92 448 -86 451 3 2 67 18 141 36 74 18 149 36 165 40 17
5 43 9 58 9 l28 1 -3 -62z m4485 -72 c54 -7 101 -16 104 -20 4 -3 -90 -6 -208
-6 -387 0 -636 -34 -963 -129 -117 -35 -249 -82 -243 -87 2 -2 32 6 68 16 338
105 825 178 926 139 44 -16 15 -25 -142 -44 -477 -56 -960 -188 -1305 -357
-177 -87 -382 -220 -504 -327 -312 -276 -499 -483 -689 -763 -152 -225 -289
-531 -323 -723 -4 -22 -14 -53 -23 -70 l-16 -30 -3 33 c-6 56 45 301 93 449
202 628 772 1265 1433 1601 359 183 762 300 1162 336 90 8 538 -4 633 -18z
m-4954 -55 c6 -30 10 -55 9 -56 -2 -1 -48 -17 -103 -35 -55 -18 -103 -35 -107
-39 -8 -7 13 -91 22 -91 4 0 46 14 95 30 49 17 92 30 96 30 4 0 10 -17 13 -37
4 -21 9 -45 12 -54 3 -12 -15 -22 -82 -45 -47 -16 -88 -34 -91 -41 -4 -10 17
-87 44 -159 4 -11 -134 -71 -141 -63 -5 6 -166 493 -163 494 1 1 54 21 117 45
164 61 254 89 261 82 4 -4 12 -31 18 -61z m2749 -23 c71 -35 89 -52 40 -37
-18 6 -47 15 -64 20 -17 5 -44 21 -60 35 -29 26 -29 26 -4 19 14 -3 53 -20 88
-37z m-3247 -226 c197 -103 180 -376 -29 -479 -75 -37 -194 -40 -257 -6 -158
84 -182 297 -48 426 90 86 234 112 334 59z m1674 -159 c-3 -10 -23 -73 -43
-140 l-37 -123 -37 0 c-21 0 -38 3 -38 8 0 17 75 257 82 262 4 3 24 7 44 8 31
2 35 0 29 -15z m242 7 c40 0 41 -1 34 -27 -6 -23 -14 -29 -43 -31 -34 -3 -36
-5 -66 -85 -16 -45 -33 -92 -37 -104 -5 -19 -14 -23 -46 -23 -21 0 -39 4 -39
9 0 5 16 52 35 104 l34 96 -29 6 c-23 5 -30 12 -30 29 0 35 10 39 80 32 36 -3
84 -6 107 -6z m-473 -24 c81 -53 34 -206 -79 -257 -71 -33 -159 -18 -185 30
-15 28 -12 107 4 139 48 92 184 138 260 88z m612 14 c20 0 24 -5 25 -32 1 -18
4 -44 8 -57 6 -23 8 -22 52 27 43 48 49 51 83 45 20 -3 36 -9 36 -12 0 -4 -37
-41 -82 -82 -61 -56 -87 -88 -99 -120 -9 -24 -21 -44 -27 -43 -7 1 -25 2 -41
3 l-29 1 21 50 c19 46 20 56 9 120 -16 96 -16 114 4 106 9 -3 27 -6 40 -6z
m-990 -65 c-3 -8 -8 -56 -12 -106 l-7 -91 34 7 c19 4 39 8 44 9 13 1 7 -57 -6
-65 -13 -8 -149 -32 -153 -28 -2 2 2 64 8 137 12 143 16 152 70 152 21 0 27
-4 22 -15z m-168 -47 c-3 -29 -9 -34 -48 -48 -33 -11 -46 -22 -48 -38 -4 -26
-6 -26 47 -7 l42 15 -3 -33 c-2 -26 -9 -34 -36 -43 -40 -13 -56 -28 -49 -48 6
-15 27 -12 80 9 14 6 17 2 17 -27 l0 -35 -79 -21 c-43 -12 -81 -22 -85 -22 -3
0 -6 63 -6 139 l0 139 78 25 c99 32 94 32 90 -5z m-238 -55 c0 -10 -14 -70
-30 -133 -17 -63 -30 -122 -30 -132 0 -18 -19 -31 -60 -41 -23 -6 -32 3 -99
103 -41 61 -72 111 -70 113 7 5 75 27 82 27 4 0 7 -6 7 -12 0 -7 18 -42 39
-77 l40 -64 9 39 c6 22 16 66 23 99 16 80 18 82 82 94 4 0 7 -7 7 -16z m3446
-144 c148 -45 253 -134 316 -265 42 -87 43 -91 43 -194 0 -119 -12 -173 -63
-274 -57 -115 -187 -223 -316 -261 -172 -52 -412 -7 -534 99 -37 32 -95 131
-119 202 -9 27 -20 54 -24 60 -16 20 -21 120 -10 194 29 193 184 374 372 435
100 32 237 34 335 4z m-4736 -44 c75 -38 123 -77 159 -132 39 -59 40 -79 2
-32 -40 48 -137 113 -201 134 -40 13 -72 16 -130 12 -156 -10 -275 -108 -332
-271 -50 -146 12 -331 146 -434 39 -30 15 -28 -34 3 -136 86 -207 241 -181
396 27 165 131 291 280 341 84 27 217 20 291 -17z m-90 -102 c0 -35 3 -39 43
-56 59 -24 113 -71 140 -120 33 -63 31 -175 -4 -242 -30 -57 -79 -101 -135
-120 -30 -10 -40 -20 -47 -45 -7 -29 -11 -31 -45 -28 -32 3 -38 7 -47 36 -7
25 -14 32 -35 32 -47 0 -120 62 -156 132 -65 128 6 311 140 359 31 11 36 17
36 45 0 35 -4 33 93 42 13 2 17 -6 17 -35z m3260 -140 c18 -5 17 -8 -10 -42
l-30 -36 -253 -2 c-148 -1 -308 -8 -387 -17 -321 -36 -649 -121 -873 -225
-173 -80 -431 -245 -585 -375 -77 -64 -69 -39 13 45 398 403 879 595 1635 653
71 5 469 4 490 -1z m2103 -73 c3 -11 1 -18 -4 -14 -5 3 -9 12 -9 20 0 20 7 17
13 -6z m-4270 -134 c4 -10 0 -12 -15 -8 -14 3 -19 1 -14 -6 4 -7 2 -12 -3 -12
-14 0 -14 13 1 28 16 16 25 15 31 -2z m-287 -127 c9 -10 32 -23 51 -30 l36
-11 -49 -27 c-42 -22 -51 -33 -65 -74 l-16 -47 -12 39 c-12 43 -61 91 -91 91
-30 0 -32 17 -4 24 45 12 72 36 91 81 l18 44 13 -36 c7 -20 19 -45 28 -54z
m1254 21 c-13 -9 -13 -10 0 -10 10 -1 8 -5 -6 -13 -12 -7 -19 -18 -17 -24 3
-9 -5 -13 -23 -13 -27 0 -27 -1 -8 -15 17 -13 15 -14 -31 -15 -31 0 -60 -7
-74 -17 -18 -12 -22 -13 -17 -2 4 8 1 6 -7 -3 -8 -10 -23 -18 -33 -18 -16 0
-17 -2 -4 -10 12 -8 11 -10 -7 -10 -46 0 -337 -86 -457 -134 -49 -20 -91 -34
-94 -32 -2 3 22 21 54 41 33 21 82 52 110 71 28 19 54 34 58 34 3 0 39 16 79
36 91 45 127 58 260 95 60 16 117 27 128 24 10 -4 19 -2 19 4 0 11 22 18 60
20 20 0 22 -1 10 -9z m3286 -154 c-34 -95 -75 -169 -133 -236 -47 -55 -123
-120 -141 -120 -4 0 -17 -8 -28 -18 -34 -31 -191 -90 -284 -108 -108 -19 -232
-9 -346 30 -94 32 -130 51 -211 115 -74 58 -125 116 -161 183 -13 24 -29 52
-36 63 -12 18 -27 85 -20 85 2 0 17 -27 33 -60 101 -203 255 -318 491 -366
161 -32 323 -8 480 71 63 32 140 91 140 108 0 7 16 30 36 52 l36 40 -27 -48
c-15 -27 -25 -50 -23 -53 7 -6 99 126 133 191 17 33 42 97 56 143 23 80 24 81
27 40 2 -26 -6 -68 -22 -112z m-3196 -17 c0 -5 -16 -9 -36 -9 -23 0 -33 -4
-28 -11 4 -7 0 -9 -14 -5 -28 9 -79 -4 -60 -15 10 -7 9 -9 -4 -9 -11 0 -18 -8
-18 -20 0 -12 -7 -20 -18 -20 -9 0 -23 -9 -30 -20 -7 -11 -22 -20 -35 -21 -18
-1 -17 -2 7 -9 18 -6 36 -5 48 1 11 6 22 8 25 6 2 -3 -5 -8 -18 -12 -17 -6
-19 -9 -8 -17 10 -6 6 -7 -11 -2 -14 4 -31 6 -37 5 -32 -5 -65 -3 -163 7 -58
6 -162 12 -232 13 -71 1 -128 3 -128 5 0 6 140 55 210 73 80 22 273 61 297 61
9 0 11 -5 7 -12 -6 -10 -4 -10 8 0 9 7 27 10 41 7 14 -4 28 -2 31 3 3 6 25 8
48 5 23 -4 39 -2 35 3 -3 5 14 7 39 5 24 -1 44 -7 44 -12z m-2817 -6 c8 -14
-7 -38 -26 -41 -22 -4 -35 27 -16 39 17 11 36 11 42 2z m1402 -273 c64 -25
143 -95 182 -162 29 -50 21 -48 -17 3 -32 45 -88 91 -100 84 -5 -3 -10 2 -14
10 -3 9 -18 15 -35 15 -16 0 -31 5 -33 12 -2 6 -18 11 -36 10 -18 0 -32 3 -32
8 0 7 -34 8 -100 1 l-25 -3 25 -9 c17 -6 8 -7 -30 -3 -38 4 -51 2 -40 -5 10
-7 0 -12 -40 -17 -30 -5 -62 -7 -70 -6 -13 3 -13 2 0 -7 12 -8 7 -13 -25 -27
-22 -9 -49 -26 -62 -38 -12 -11 -28 -21 -35 -21 -7 0 -13 -4 -13 -10 -1 -5 -7
-21 -14 -33 -7 -13 -10 -26 -8 -29 9 -9 -54 -103 -69 -103 -7 0 -18 -10 -25
-21 -17 -32 -23 -166 -10 -233 6 -33 9 -61 7 -64 -8 -8 -36 69 -47 132 -15 78
8 200 53 290 56 111 188 214 314 245 69 18 232 7 299 -19z m-969 -87 c-3 -21
-6 -137 -6 -258 l0 -220 -101 103 c-55 56 -104 100 -109 97 -5 -3 -6 -20 -4
-38 6 -37 11 -31 -170 -202 -71 -66 -168 -161 -217 -211 -50 -50 -109 -100
-132 -112 -23 -11 -50 -35 -61 -52 -10 -17 -20 -29 -23 -26 -11 11 60 102 174
222 65 69 119 132 121 140 9 38 -44 3 -158 -102 -178 -166 -220 -194 -220
-147 0 13 40 58 263 291 39 40 55 62 44 62 -21 0 -113 -84 -465 -424 l-92 -89
0 85 0 84 193 189 c105 105 265 261 355 348 l163 158 35 -31 c20 -17 41 -29
47 -27 29 9 12 39 -63 110 -44 41 -80 78 -80 81 0 3 115 6 256 6 l257 0 -7
-37z m909 12 c122 -32 217 -113 273 -232 24 -52 27 -69 27 -168 0 -103 -2
-114 -32 -177 -78 -165 -266 -268 -435 -238 -142 25 -250 107 -309 233 -32 68
-34 78 -33 177 0 115 5 160 17 160 4 0 7 5 7 11 0 6 9 24 21 40 11 16 17 34
13 40 -4 7 -3 9 3 6 12 -8 36 17 26 26 -3 4 -1 7 7 7 7 0 28 13 46 30 97 85
241 118 369 85z m-1620 -26 c7 -20 -7 -38 -27 -39 -13 0 -19 20 -13 40 8 26
32 26 40 -1z m1771 -6 c-1 -1 -12 0 -25 4 -15 4 -19 8 -10 13 10 7 42 -10 35
-17z m3139 -12 c-6 -6 -48 -26 -95 -46 -299 -128 -593 -329 -840 -575 -169
-169 -264 -298 -283 -385 -3 -11 -5 5 -6 36 -6 273 388 697 814 875 152 63
447 131 410 95z m2135 -491 c36 -71 74 -99 169 -125 l45 -12 -71 -21 c-56 -17
-78 -30 -107 -62 -42 -46 -52 -70 -70 -155 l-12 -59 -12 68 c-14 74 -39 131
-69 158 -27 25 -104 58 -135 58 -42 0 -42 17 0 23 20 4 62 21 92 39 65 39 96
92 113 193 l11 67 12 -65 c7 -35 22 -84 34 -107z m-6512 -142 c-2 -13 -10 -24
-19 -26 -21 -4 -34 28 -17 40 24 15 39 9 36 -14z m1934 -219 c-18 -18 -35 -29
-39 -25 -3 3 -4 7 -2 9 2 2 17 13 33 25 41 32 45 27 8 -9z m4120 -9 c13 -31
27 -45 58 -59 l42 -18 -33 -12 c-41 -14 -79 -49 -79 -72 0 -10 -4 -21 -10 -24
-6 -4 -10 5 -10 19 0 31 -30 64 -72 78 l-31 11 38 19 c25 13 42 32 54 59 9 21
18 39 21 39 3 0 13 -18 22 -40z m-3025 -53 c-16 -71 4 -214 37 -271 44 -76
109 -122 214 -152 18 -5 15 -16 -15 -49 -37 -40 -95 -84 -170 -129 -35 -21
-63 -41 -63 -45 0 -4 16 -5 35 -3 19 2 35 2 35 -2 0 -13 -77 -36 -158 -47
-109 -14 -127 -20 -87 -29 29 -7 29 -8 4 -9 -15 0 -51 4 -80 9 -71 13 -89 35
-89 109 1 192 115 444 277 608 35 36 66 63 68 61 2 -1 -2 -25 -8 -51z m-3235
-62 l4 -91 203 -199 c112 -110 211 -200 220 -200 9 0 17 10 19 23 4 25 12 28
30 10 14 -14 16 -116 3 -137 -7 -11 -13 -11 -32 3 -13 9 -19 16 -14 16 5 0 -2
8 -15 18 -13 9 -53 48 -90 86 -37 38 -72 66 -77 63 -6 -4 -17 1 -24 11 -13 15
-12 16 4 3 32 -25 18 5 -19 40 -24 22 -38 30 -41 21 -6 -15 -43 28 -43 50 0 7
-14 24 -32 38 -17 14 -48 42 -69 63 -26 27 -39 35 -44 26 -5 -7 -4 -10 2 -6 6
4 16 1 22 -7 9 -11 8 -14 -6 -12 -14 1 -17 -5 -14 -24 4 -32 19 -42 57 -36 21
3 31 0 31 -9 0 -7 -7 -11 -15 -8 -12 5 -12 2 -3 -15 7 -12 18 -22 25 -22 16 0
31 -17 40 -47 6 -19 3 -23 -13 -23 -11 0 -29 10 -41 22 -16 18 -20 19 -20 5 0
-8 -4 -18 -9 -21 -9 -6 -49 5 -51 14 -5 30 -14 49 -21 44 -5 -3 -9 22 -9 55 0
34 4 61 9 61 9 0 5 160 -5 188 -3 9 -12 4 -29 -17 -37 -43 -130 -119 -123 -99
4 9 3 18 -3 20 -5 2 32 46 83 99 51 52 96 93 99 90 4 -3 9 -47 11 -96z m2341
-50 c-3 -8 -10 -15 -15 -15 -7 0 -6 5 1 13 6 8 7 18 3 22 -4 5 -2 5 5 1 7 -4
10 -13 6 -21z m4611 -152 l35 -16 -39 -18 c-31 -14 -41 -25 -51 -59 l-12 -41
-13 38 c-13 37 -48 72 -71 73 -24 0 -13 16 21 33 24 11 38 27 47 52 l14 37 17
-41 c12 -28 28 -46 52 -58z m-914 -33 c12 -8 10 -10 -10 -11 -22 0 -23 -1 -6
-8 19 -7 19 -8 -2 -13 -16 -5 -22 -2 -22 11 0 30 14 38 40 21z m-2496 -151
c-5 -9 6 -10 39 -7 35 4 43 3 34 -6 -17 -18 -97 -8 -90 10 3 8 9 14 15 14 5 0
6 -5 2 -11z m454 -17 c-6 -7 -14 -9 -17 -5 -4 4 -10 11 -14 14 -5 4 3 6 16 5
20 -1 23 -4 15 -14z m-31 -8 c-3 -3 -12 -4 -19 -1 -8 3 -5 6 6 6 11 1 17 -2
13 -5z m-383 -13 c5 -8 -34 -41 -49 -41 -14 0 -3 20 13 21 12 0 13 2 3 6 -11
5 -11 7 0 14 18 11 26 11 33 0z m366 -17 c0 -3 -13 -19 -30 -37 -16 -18 -30
-29 -30 -25 0 4 7 14 16 22 8 9 11 16 5 16 -6 0 -11 5 -11 11 0 6 7 9 15 5 8
-3 15 -1 15 4 0 6 5 10 10 10 6 0 10 -2 10 -6z m2636 -75 c66 -20 120 -49 64
-35 l-25 7 25 -15 c26 -16 11 -22 -18 -7 -9 5 -26 5 -37 0 l-20 -8 20 -1 c11
-1 14 -4 8 -7 -7 -2 -13 -16 -13 -29 0 -14 4 -23 8 -20 4 2 8 -3 8 -12 1 -9 4
-30 8 -47 6 -24 1 -20 -21 19 -48 84 -53 91 -53 83 0 -4 -14 0 -31 8 -22 12
-51 16 -105 13 -41 -2 -74 1 -74 6 0 5 -10 17 -21 27 -16 14 -18 20 -8 23 40
13 40 16 -1 12 -37 -4 -51 -11 -77 -42 -18 -20 -30 -41 -26 -47 3 -6 1 -7 -5
-3 -6 3 -15 -9 -22 -30 -11 -33 -13 -34 -29 -20 -45 41 -123 32 -210 -24 -79
-51 -95 -51 -46 1 121 126 281 181 506 173 90 -2 145 -10 195 -25z m-2818 -29
c-7 -10 -14 -17 -17 -15 -4 4 18 35 25 35 2 0 -1 -9 -8 -20z m2516 4 c3 -8 2
-12 -4 -9 -6 3 -10 10 -10 16 0 14 7 11 14 -7z m-6024 -29 c0 -17 -27 -48 -96
-112 -53 -48 -102 -92 -110 -96 -10 -6 -13 -18 -8 -42 4 -22 0 -45 -11 -68
-18 -39 -198 -197 -292 -257 -32 -20 -71 -50 -88 -66 -119 -113 -39 -11 123
157 29 31 63 77 76 103 24 51 382 420 397 410 5 -3 9 -16 9 -29z m3074 0 c-4
-8 -11 -12 -16 -9 -6 4 -5 10 3 15 19 12 19 11 13 -6z m3371 -3 c-3 -3 -11 0
-18 7 -9 10 -8 11 6 5 10 -3 15 -9 12 -12z m-2562 -29 c11 -26 8 -30 -183
-216 -314 -304 -569 -546 -595 -563 -13 -8 -36 -14 -51 -12 -26 3 -18 12 117
148 297 298 680 670 690 670 5 0 15 -12 22 -27z m2172 17 c-3 -5 -11 -10 -16
-10 -6 0 -7 5 -4 10 3 6 11 10 16 10 6 0 7 -4 4 -10z m191 -16 c25 -17 64 -73
64 -94 0 -7 -8 -2 -18 10 -35 43 -171 21 -238 -38 -27 -23 -54 -74 -55 -104 0
-13 -5 -32 -10 -43 -6 -14 -8 7 -4 63 5 88 27 154 63 185 51 46 144 56 198 21z
m-6511 -33 c-3 -6 -11 -11 -16 -11 -5 0 -4 6 3 14 14 16 24 13 13 -3z m6676
-84 c-20 -20 -12 -25 38 -25 57 0 102 -26 126 -73 9 -16 14 -29 11 -29 -2 0
-24 11 -47 25 -50 28 -124 33 -155 10 -10 -8 -22 -15 -26 -15 -8 0 20 58 32
65 4 3 6 14 3 25 -3 11 0 20 6 20 6 0 12 10 12 23 1 18 2 19 6 3 3 -10 0 -23
-6 -29z m-31 -14 c0 -5 -5 -15 -10 -23 -8 -12 -10 -11 -10 8 0 12 5 22 10 22
6 0 10 -3 10 -7z m-468 -116 c4 -7 8 -19 8 -26 0 -12 -3 -12 -12 -3 -7 7 -43
12 -87 12 -63 1 -73 3 -56 12 47 27 131 30 147 5z m-1539 1 c23 1 22 -25 -2
-33 -11 -3 -21 -14 -23 -23 -3 -13 -8 -10 -20 13 -18 35 -13 59 11 49 9 -4 24
-6 34 -6z m-4819 -74 c9 -22 -3 -39 -60 -85 -27 -23 -103 -92 -169 -154 -66
-61 -138 -127 -160 -145 -22 -19 -72 -65 -112 -104 -40 -38 -75 -67 -79 -64
-16 17 525 568 557 568 9 0 20 -7 23 -16z m7074 -185 c63 -24 5 -28 -375 -29
-219 0 -480 -3 -580 -7 -124 -4 -183 -3 -183 4 0 26 37 38 129 44 132 9 981
-2 1009 -12z m-2133 -29 c3 -5 1 -10 -4 -10 -6 0 -11 5 -11 10 0 6 2 10 4 10
3 0 8 -4 11 -10z m-41 -35 c-4 -8 -8 -15 -10 -15 -2 0 -4 7 -4 15 0 8 4 15 10
15 5 0 7 -7 4 -15z m143 -17 c-3 -8 -6 -5 -6 6 -1 11 2 17 5 13 3 -3 4 -12 1
-19z m-172 -85 c-8 -44 -22 -42 -27 4 -5 46 1 85 13 77 5 -3 10 1 11 8 0 7 3
-2 5 -21 3 -19 2 -50 -2 -68z m45 -23 c0 -5 -4 -10 -10 -10 -5 0 -10 5 -10 10
0 6 5 10 10 10 6 0 10 -4 10 -10z m-5180 -14 c0 -2 -8 -10 -17 -17 -16 -13
-17 -12 -4 4 13 16 21 21 21 13z m5180 -45 c0 -16 -18 -31 -37 -31 -3 0 -3 11
-1 25 3 13 1 22 -3 19 -5 -3 -6 2 -3 10 8 21 44 2 44 -23z m-53 -23 c-3 -8 -6
-5 -6 6 -1 11 2 17 5 13 3 -3 4 -12 1 -19z m1709 10 c4 -7 7 -33 7 -58 l-1
-45 7 43 c4 24 12 47 18 50 6 4 45 6 87 4 l75 -4 7 -34 c4 -20 4 -53 1 -75 -4
-31 -2 -39 8 -35 11 4 14 -28 15 -165 0 -93 3 -176 6 -183 3 -8 -3 -17 -13
-20 -16 -5 -19 -14 -16 -46 l3 -40 -81 0 c-93 0 -132 17 -149 63 -11 33 -14
345 -3 475 6 79 13 96 29 70z m-415 -14 c4 -2 5 -38 2 -79 -5 -65 -3 -77 12
-89 16 -11 18 -29 16 -172 -1 -87 -6 -163 -12 -168 -5 -6 -9 -27 -9 -48 l0
-38 -54 0 c-132 0 -136 9 -136 338 0 142 3 262 6 265 7 7 162 -1 175 -9z m277
-56 c3 -60 5 -67 25 -70 22 -3 22 -5 25 -201 l2 -199 -34 -34 c-32 -32 -38
-34 -101 -34 l-68 0 6 39 c4 29 1 41 -10 45 -13 5 -14 31 -9 171 3 91 10 175
16 185 6 11 8 20 4 20 -3 0 -2 6 3 13 6 6 11 31 11 55 1 83 -4 77 65 77 l62 0
3 -67z m634 12 c8 -72 10 -429 2 -469 -4 -17 -18 -42 -32 -56 -20 -20 -34 -25
-78 -25 -61 0 -75 21 -26 38 l27 10 -27 1 c-18 1 -28 6 -28 16 0 9 -6 18 -14
21 -11 4 -13 38 -11 172 3 143 6 168 20 179 15 10 16 22 11 75 -11 95 -7 99
78 96 l71 -3 7 -55z m-2152 -20 c0 -11 -4 -20 -10 -20 -5 0 -10 -18 -10 -40 0
-22 5 -40 10 -40 6 0 10 -13 10 -30 0 -22 4 -28 15 -24 8 4 15 14 16 23 0 10
2 11 6 4 2 -7 13 -13 24 -13 23 0 25 -27 4 -54 -14 -19 -15 -19 -15 -1 0 10
-3 16 -6 12 -4 -3 -1 -20 5 -38 11 -31 9 -34 -43 -86 -52 -52 -76 -65 -76 -41
0 6 -3 8 -6 5 -4 -4 -2 -13 5 -20 9 -11 8 -17 -4 -27 -13 -11 -15 -9 -15 13 0
14 5 38 11 54 6 15 12 48 14 73 7 87 18 150 26 150 5 0 9 24 9 53 0 30 3 57 7
60 12 13 23 7 23 -13z m1547 -42 c-3 -8 -6 -5 -6 6 -1 11 2 17 5 13 3 -3 4
-12 1 -19z m-1420 -80 c-3 -8 -6 -5 -6 6 -1 11 2 17 5 13 3 -3 4 -12 1 -19z
m-1383 -4 c9 -3 16 -14 16 -23 0 -15 -8 -17 -47 -15 -76 5 -79 2 -86 -73 -4
-37 -12 -72 -19 -79 -7 -7 -49 -26 -93 -43 -152 -58 -231 -126 -290 -248 -21
-43 -41 -80 -45 -83 -3 -3 -9 -13 -13 -23 -6 -15 -16 -18 -64 -15 -32 1 -64
-1 -70 -5 -9 -6 -13 -1 -13 17 0 24 3 26 44 26 l43 0 28 75 c14 41 44 99 66
130 l39 56 -35 43 c-19 24 -35 48 -35 53 0 5 23 29 51 53 l51 43 45 -45 45
-46 55 25 c30 14 81 30 113 36 l59 11 6 56 c4 30 8 61 10 68 5 13 109 17 139
6z m311 -186 c-27 -29 -50 -55 -52 -58 -2 -2 -18 4 -36 13 -18 10 -70 30 -116
45 -47 15 -86 32 -88 38 -6 18 102 -3 158 -31 26 -14 52 -25 57 -25 4 0 30 20
57 45 32 30 52 42 58 36 7 -7 -6 -28 -38 -63z m-2625 -138 c0 -5 -4 -10 -10
-10 -5 0 -10 5 -10 10 0 6 5 10 10 10 6 0 10 -4 10 -10z m4280 -58 c55 -39 93
-176 75 -268 l-8 -39 -12 50 c-19 83 -54 134 -112 164 -51 26 -71 16 -172 -87
-53 -54 -104 -104 -113 -112 -16 -11 -18 -10 -18 12 0 16 29 59 84 124 156
185 199 209 276 156z m-2849 -19 c-19 -36 -309 -327 -307 -309 2 11 12 27 24
37 12 9 22 22 22 27 0 11 149 152 161 152 5 0 9 5 9 10 0 12 81 98 93 99 4 1
3 -7 -2 -16z m915 -99 c29 -14 58 -31 65 -40 16 -20 19 -66 3 -60 -7 3 -62
-47 -123 -110 -62 -63 -108 -114 -104 -114 4 -1 -5 -7 -22 -15 -16 -7 -24 -14
-16 -14 9 -1 0 -12 -18 -25 -31 -23 -35 -24 -57 -10 -38 26 -74 110 -74 173 0
57 25 128 58 165 29 32 92 67 135 75 55 10 91 4 153 -25z m1535 -152 c-14 -26
-14 -77 -1 -103 14 -24 143 -100 222 -130 l61 -23 -27 -20 c-14 -12 -38 -30
-52 -41 l-26 -21 80 -59 c93 -68 110 -90 84 -104 -13 -7 -38 4 -107 50 -50 32
-93 59 -96 59 -3 0 -24 -35 -47 -79 -23 -43 -49 -84 -57 -91 -15 -13 -35 -6
-35 13 -1 7 -15 21 -33 33 -127 81 -317 213 -339 236 -57 57 -24 189 58 235
34 19 311 77 322 67 2 -1 -1 -11 -7 -22z m588 -18 c71 -38 113 -75 103 -90 -4
-5 -17 -17 -29 -27 -21 -18 -23 -18 -85 13 -34 17 -71 39 -80 47 -10 9 -18 12
-18 8 0 -5 -3 -6 -6 -2 -6 6 35 87 45 87 2 0 34 -16 70 -36z m-1996 -3 c8 20
6 -51 -2 -80 -4 -14 -12 -26 -19 -27 -7 -1 -8 0 -2 3 5 2 10 14 10 26 0 33
-11 67 -20 62 -4 -2 -5 7 -2 22 l5 26 12 -23 c9 -17 14 -19 18 -9z m132 -25
c9 -13 19 -56 22 -95 8 -92 -18 -156 -89 -224 -42 -39 -56 -47 -76 -42 -20 5
-23 3 -18 -10 5 -13 2 -14 -16 -4 -12 6 -58 11 -104 10 -87 -2 -121 13 -55 24
59 10 151 58 197 103 54 52 96 139 102 208 5 59 14 66 37 30z m545 4 c0 -10
-10 -25 -22 -31 -22 -12 -22 -11 -5 8 9 11 17 25 17 31 0 7 2 12 5 12 3 0 5
-9 5 -20z m2355 -30 c-3 -5 -10 -10 -16 -10 -5 0 -9 5 -9 10 0 6 7 10 16 10 8
0 12 -4 9 -10z m-608 -46 c18 -14 29 -32 31 -52 3 -28 0 -32 -22 -32 -14 0
-52 9 -83 19 -82 28 -176 51 -209 51 -41 0 -24 9 47 25 91 21 200 15 236 -11z
m-4589 -35 c-12 -16 -24 -25 -26 -19 -2 6 7 19 20 30 31 26 32 25 6 -11z
m-148 -4 c-7 -8 -17 -15 -23 -15 -6 0 -2 7 9 15 25 19 30 19 14 0z m2286 -9
c-20 -30 -36 -31 -36 -2 0 21 4 25 25 24 22 -2 23 -4 11 -22z m-1054 -13 c1
-16 1 -37 0 -48 -2 -11 -3 -27 -3 -36 0 -8 -10 -21 -22 -28 -22 -14 -22 -14
-3 8 11 11 15 21 10 21 -16 0 -175 -166 -167 -174 4 -4 3 -6 -3 -4 -14 4 -86
-60 -79 -71 3 -5 0 -13 -6 -17 -8 -4 -9 -3 -5 4 12 21 -9 13 -28 -10 -18 -21
-18 -22 4 -40 19 -15 21 -21 10 -31 -8 -8 -11 -8 -7 -1 4 7 -4 19 -17 27 -22
15 -25 14 -62 -25 -27 -27 -32 -37 -16 -29 12 6 22 15 22 20 0 4 7 8 15 8 8 0
15 -6 15 -14 0 -7 -6 -13 -14 -13 -8 0 -13 -9 -12 -22 3 -34 -12 -48 -44 -42
-15 4 -31 1 -34 -5 -5 -7 -1 -9 11 -4 15 5 16 3 6 -8 -7 -7 -13 -21 -13 -32 0
-10 -5 -15 -10 -12 -12 7 -42 -20 -33 -29 9 -8 -672 -678 -983 -969 l-61 -57
-56 32 c-31 18 -56 38 -57 43 0 6 20 30 45 54 25 24 45 48 45 53 0 20 -53 7
-73 -18 -11 -14 -34 -34 -50 -44 -29 -18 -30 -18 -71 12 -22 16 -40 34 -39 39
2 4 -5 5 -14 2 -11 -4 -14 -3 -9 5 5 8 0 12 -12 12 -28 0 -48 26 -26 34 9 3
20 4 25 0 5 -3 9 0 9 5 0 6 -5 11 -11 11 -7 0 1 10 17 22 16 13 35 22 43 20 9
-2 12 2 8 12 -4 11 -1 13 10 9 12 -5 15 -2 10 10 -4 12 -2 14 10 10 12 -5 15
-2 10 10 -3 9 1 21 11 29 15 12 16 11 3 -4 -7 -10 -9 -18 -3 -18 15 0 35 28
27 39 -3 7 0 8 9 5 9 -3 16 -10 16 -14 0 -5 7 -10 16 -12 13 -2 12 -7 -6 -26
-12 -13 -27 -21 -34 -19 -6 3 -20 -1 -31 -9 -15 -11 -16 -17 -7 -26 9 -9 12
-9 12 0 0 7 9 12 20 12 11 0 20 5 20 12 0 9 3 9 12 0 17 -17 56 -15 75 3 8 8
19 12 25 9 5 -3 28 11 49 32 33 32 42 37 57 27 10 -6 31 -9 45 -6 23 5 26 3
21 -13 -5 -14 -4 -16 5 -8 16 15 3 44 -16 37 -10 -4 -14 -2 -10 4 4 6 1 14 -5
17 -7 3 2 4 20 2 18 -3 30 0 26 5 -3 5 11 18 30 30 25 14 33 25 29 37 -4 11 2
8 15 -7 12 -13 22 -20 22 -15 0 6 -5 15 -12 22 -7 7 -8 12 -2 12 6 0 15 -5 22
-12 9 -9 12 -9 12 0 0 7 -4 12 -10 12 -21 0 -3 43 19 47 17 2 22 -1 17 -12 -7
-20 -3 -19 19 5 17 18 17 20 2 14 -12 -4 -17 -1 -17 11 0 9 5 13 10 10 6 -3
10 1 10 9 0 16 34 31 49 21 17 -10 61 36 56 59 -7 29 35 79 55 66 8 -5 11 -12
7 -17 -5 -4 -12 -1 -16 6 -6 9 -8 5 -8 -12 l0 -25 28 26 c33 29 36 34 14 26
-18 -7 -20 12 -3 23 7 4 22 7 32 8 20 0 36 25 17 25 -6 0 -11 -5 -11 -12 0 -6
-2 -9 -5 -6 -3 3 -3 13 1 22 5 13 9 14 21 4 12 -9 19 -6 38 17 14 15 22 32 19
37 -3 4 -2 8 3 7 14 -3 43 13 43 23 0 6 -6 5 -15 -2 -11 -9 -15 -9 -15 -1 0 7
-5 9 -12 5 -6 -4 -8 -3 -5 3 4 6 20 9 37 7 21 -3 32 2 39 15 6 10 8 20 6 23
-2 2 5 4 16 5 26 2 51 22 43 34 -3 5 0 8 8 7 7 -2 12 2 11 8 -1 6 15 26 35 45
23 22 29 25 17 9 l-20 -25 27 24 c15 13 25 28 22 33 -3 5 0 7 7 6 7 -2 13 3
14 10 0 6 5 12 10 13 17 1 35 21 29 30 -3 5 -2 8 3 7 5 -2 52 38 104 88 52 50
126 120 164 156 39 36 124 115 190 176 65 62 123 112 127 112 4 0 9 -12 10
-27z m1012 -19 c14 -5 14 -8 1 -21 -13 -12 -18 -12 -37 2 -23 16 -23 16 7 10
23 -5 26 -4 15 4 -17 12 -10 14 14 5z m-2323 -33 c-6 -10 -7 -21 -3 -25 3 -4
-2 -4 -12 0 -14 5 -17 4 -12 -4 4 -7 2 -12 -3 -12 -17 0 -13 10 12 36 27 29
31 30 18 5z m2279 -1 c0 -5 -4 -10 -10 -10 -5 0 -10 5 -10 10 0 6 5 10 10 10
6 0 10 -4 10 -10z m-205 -40 c-3 -5 -12 -10 -18 -10 -7 0 -6 4 3 10 19 12 23
12 15 0z m112 -16 c-3 -3 -12 -4 -19 -1 -8 3 -5 6 6 6 11 1 17 -2 13 -5z
m-2290 -42 c-10 -10 -14 -22 -10 -27 5 -4 2 -5 -5 -1 -11 6 -10 12 4 27 9 10
19 19 22 19 3 0 -2 -8 -11 -18z m27 -23 c-3 -5 -10 -7 -15 -3 -5 3 -7 10 -3
15 3 5 10 7 15 3 5 -3 7 -10 3 -15z m3506 -43 c0 -17 5 -23 18 -22 9 0 16 -5
14 -12 -1 -7 3 -12 10 -10 14 3 100 -51 179 -112 25 -19 56 -42 68 -50 14 -10
19 -21 15 -33 -4 -13 -2 -17 5 -13 16 10 14 -6 -5 -32 -8 -12 -14 -30 -12 -41
2 -10 -3 -25 -11 -34 -15 -19 -14 -20 84 -136 33 -38 71 -73 84 -77 25 -7 46
10 97 81 l22 29 -4 -32 c-3 -29 2 -36 69 -85 39 -30 103 -79 141 -110 37 -31
72 -54 77 -51 46 28 -104 -201 -162 -248 -28 -22 -49 -30 -92 -34 l-56 -4
-178 121 c-263 178 -545 376 -572 402 -39 36 -54 82 -40 125 10 32 107 202
202 355 32 52 47 59 47 23z m-1096 -35 c4 -5 -3 -7 -14 -4 -23 6 -26 13 -6 13
8 0 17 -4 20 -9z m2107 -76 c46 -42 94 -78 106 -81 13 -4 21 -9 19 -13 -3 -4
22 -7 54 -7 47 1 63 6 84 25 14 13 28 32 32 43 3 10 9 18 14 18 17 0 163 -96
176 -115 19 -29 1 -93 -29 -105 -23 -10 -181 -45 -277 -62 -30 -5 -59 -13 -65
-18 -7 -6 -15 -7 -18 -3 -4 3 -7 1 -7 -6 0 -18 -71 -87 -98 -95 -12 -4 -19
-12 -16 -18 15 -24 -49 10 -186 101 -80 53 -146 99 -148 104 -2 4 -10 7 -18 7
-20 0 -19 2 31 98 59 114 60 115 130 146 33 14 74 33 90 41 17 7 33 14 36 14
4 1 44 -33 90 -74z m-3026 19 c14 -35 14 -35 -22 -67 -70 -61 -122 -115 -116
-121 4 -3 2 -6 -4 -6 -14 0 -159 -142 -155 -152 1 -4 -2 -7 -7 -6 -14 5 -500
-475 -494 -486 4 -6 2 -8 -2 -3 -11 10 -86 -63 -78 -76 3 -6 2 -7 -4 -4 -9 6
-115 -90 -145 -130 -7 -11 -24 -26 -37 -35 -24 -17 -248 -236 -308 -302 -18
-19 -33 -40 -33 -45 0 -6 -20 -3 -45 7 -25 9 -45 19 -45 23 0 3 107 109 238
235 205 198 407 394 1101 1071 75 73 137 133 138 133 2 0 9 -16 18 -36z m-317
-19 c-3 -3 -9 2 -12 12 -6 14 -5 15 5 6 7 -7 10 -15 7 -18z m-267 -42 c13 -16
12 -17 -3 -4 -17 13 -22 21 -14 21 2 0 10 -8 17 -17z m199 -3 c0 -5 -4 -10
-10 -10 -5 0 -10 5 -10 10 0 6 5 10 10 10 6 0 10 -4 10 -10z m-42 -51 c3 -12
2 -12 -6 0 -6 8 -15 10 -22 6 -9 -5 -11 -4 -6 4 10 15 28 10 34 -10z m2 -33
c0 -2 -8 -10 -17 -17 -16 -13 -17 -12 -4 4 13 16 21 21 21 13z m1847 -219 c14
-31 -1 -57 -32 -57 -14 0 -25 4 -25 9 0 5 -3 16 -6 24 -6 16 20 47 40 47 7 0
18 -10 23 -23z m-3457 -57 c0 -5 -5 -10 -11 -10 -5 0 -7 5 -4 10 3 6 8 10 11
10 2 0 4 -4 4 -10z m5077 -26 c-3 -3 -12 -4 -19 -1 -8 3 -5 6 6 6 11 1 17 -2
13 -5z m-118 -128 c-7 -14 -16 -26 -20 -26 -5 0 0 13 9 29 20 36 27 34 11 -3z
m-1239 -17 c0 -12 -7 -19 -20 -19 -22 0 -29 35 -7 43 18 6 27 -2 27 -24z
m-1600 -23 c0 -2 -7 -9 -15 -16 -13 -11 -14 -10 -9 4 5 14 24 23 24 12z
m-1286 -71 c-3 -6 -13 -16 -23 -22 -16 -10 -18 -8 -16 10 1 12 3 22 4 22 15 5
38 -2 35 -10z m-390 -120 c-7 -16 -24 -21 -24 -6 0 8 7 13 27 20 1 1 0 -6 -3
-14z m1104 -4 c2 -7 -70 -87 -169 -187 -175 -175 -210 -199 -217 -149 -2 19
40 75 56 75 4 0 14 12 23 26 9 14 67 77 129 140 100 101 118 115 144 112 16
-2 31 -9 34 -17z m-978 -61 c0 -5 -4 -10 -9 -10 -6 0 -13 5 -16 10 -3 6 1 10
9 10 9 0 16 -4 16 -10z m-250 -3 c0 -2 -12 -14 -27 -28 l-28 -24 24 28 c23 25
31 32 31 24z m2326 -69 c-3 -24 -9 -95 -13 -158 -3 -63 -11 -126 -18 -140 -21
-41 -468 -476 -514 -499 -45 -23 -206 -38 -217 -20 -3 5 29 46 72 89 43 44 73
80 68 80 -5 0 -49 -36 -99 -80 -49 -44 -107 -92 -128 -107 l-39 -27 -106 17
c-58 10 -108 20 -111 23 -3 2 142 152 321 332 179 180 331 337 337 349 6 12
14 49 17 82 4 32 10 64 13 70 8 12 178 28 325 30 l99 1 -7 -42z m1084 34 c0
-4 -31 -36 -70 -71 -39 -35 -70 -70 -70 -81 0 -16 -4 -14 -28 10 -49 49 -147
50 -203 3 -23 -19 -35 -16 -17 5 15 17 21 55 7 47 -4 -3 -9 2 -13 10 -8 21
-59 19 -89 -5 -14 -11 -29 -20 -34 -20 -4 0 -1 5 7 11 13 9 13 10 0 6 -8 -2
-21 -14 -27 -28 -7 -13 -13 -18 -13 -10 0 11 -5 10 -20 -4 -11 -10 -23 -16
-25 -13 -3 3 23 31 59 63 l65 57 138 9 c76 5 167 10 203 12 36 2 80 4 98 5 17
1 32 -2 32 -6z m-3420 -16 c0 -3 -4 -8 -10 -11 -5 -3 -10 -1 -10 4 0 6 5 11
10 11 6 0 10 -2 10 -4z m2490 -16 c0 -5 -5 -10 -11 -10 -5 0 -7 5 -4 10 3 6 8
10 11 10 2 0 4 -4 4 -10z m513 -121 c3 -11 2 -17 -3 -14 -4 2 -16 -7 -26 -21
-34 -47 -51 -64 -62 -64 -17 0 -129 -115 -124 -128 2 -8 -3 -10 -14 -5 -12 4
-15 3 -10 -5 4 -7 2 -12 -6 -12 -7 0 -29 -14 -48 -31 -19 -17 -57 -51 -85 -74
-27 -24 -63 -55 -80 -70 -51 -45 -85 -67 -85 -55 0 11 84 102 305 329 77 79
150 155 162 168 19 20 26 21 47 12 13 -6 27 -20 29 -30z m241 -206 c-9 -18
-26 -39 -38 -47 -28 -18 -91 -32 -82 -18 4 6 -2 8 -14 5 -13 -4 -20 0 -20 10
0 8 -7 20 -15 27 -22 18 -19 33 4 20 56 -30 127 1 158 68 l17 37 4 -35 c2 -21
-3 -48 -14 -67z m-226 -23 c7 -11 9 -20 4 -20 -4 0 -13 9 -20 20 -7 11 -9 20
-4 20 4 0 13 -9 20 -20z"/>
<path d="M5587 8674 c-3 -11 -9 -40 -12 -65 l-7 -46 39 -6 c89 -15 133 6 133
65 0 35 -29 55 -96 64 -45 5 -53 4 -57 -12z"/>
<path d="M3204 8210 c-120 -27 -150 -171 -51 -244 55 -40 158 -11 192 54 21
40 19 99 -5 137 -29 48 -78 67 -136 53z"/>
<path d="M4673 8090 c-25 -10 -63 -66 -63 -92 0 -26 36 -58 66 -58 37 0 81 35
94 74 13 41 5 65 -27 77 -29 11 -41 11 -70 -1z"/>
<path d="M2507 7541 c-19 -17 -43 -48 -52 -68 -35 -72 2 -180 73 -217 l28 -14
-3 160 c-1 88 -4 162 -6 165 -3 2 -21 -10 -40 -26z"/>
<path d="M2646 7413 c3 -87 7 -159 9 -162 10 -10 70 47 86 83 24 54 24 100 -2
152 -17 36 -70 84 -92 84 -4 0 -4 -71 -1 -157z"/>
<path d="M4518 6923 c7 -3 16 -2 19 1 4 3 -2 6 -13 5 -11 0 -14 -3 -6 -6z"/>
<path d="M2787 6506 c-4 -10 -5 -21 -2 -24 9 -9 17 6 13 25 -3 17 -4 17 -11
-1z"/>
<path d="M3132 6582 c-139 -50 -211 -198 -168 -346 44 -151 218 -229 361 -162
115 53 160 125 160 251 -1 90 -14 126 -74 188 -75 79 -178 105 -279 69z m150
-86 c45 -19 95 -71 109 -114 27 -82 -17 -184 -97 -221 -82 -39 -159 -21 -216
51 -55 69 -50 184 10 241 59 56 126 71 194 43z"/>
<path d="M3175 6421 c-101 -42 -62 -201 49 -201 31 0 82 50 91 91 17 79 -62
141 -140 110z"/>
<path d="M2000 5444 c0 -8 5 -12 10 -9 6 4 8 11 5 16 -9 14 -15 11 -15 -7z"/>
<path d="M2170 5413 c0 -6 8 -17 18 -24 16 -13 16 -13 2 6 -8 11 -16 22 -17
24 -2 2 -3 0 -3 -6z"/>
<path d="M8538 5143 c7 -3 16 -2 19 1 4 3 -2 6 -13 5 -11 0 -14 -3 -6 -6z"/>
<path d="M6701 4464 c0 -11 3 -14 6 -6 3 7 2 16 -1 19 -3 4 -6 -2 -5 -13z"/>
<path d="M8770 3750 c0 -5 5 -10 11 -10 5 0 7 5 4 10 -3 6 -8 10 -11 10 -2 0
-4 -4 -4 -10z"/>
<path d="M6722 3993 c2 -9 8 -18 15 -20 7 -3 9 3 6 16 -6 25 -26 28 -21 4z"/>
<path d="M5290 3255 c-11 -13 -10 -14 4 -9 9 3 16 10 16 15 0 13 -6 11 -20 -6z"/>
<path d="M4180 2825 c-18 -21 3 -46 23 -26 10 10 9 11 -5 6 -10 -4 -18 -3 -18
3 0 6 6 12 13 15 6 2 9 7 6 11 -3 4 -12 -1 -19 -9z"/>
<path d="M4136 2815 c-11 -8 -15 -15 -9 -15 6 0 16 7 23 15 16 19 11 19 -14 0z"/>
<path d="M3979 2663 c-13 -16 -12 -17 4 -4 16 13 21 21 13 21 -2 0 -10 -8 -17
-17z"/>
<path d="M3123 2019 c-23 -8 -33 -49 -13 -49 6 0 10 5 10 11 0 6 7 8 17 5 10
-4 14 -4 10 0 -4 4 -2 13 4 20 14 17 -1 24 -28 13z"/>
<path d="M6965 2800 c-16 -7 -17 -9 -3 -9 9 -1 20 4 23 9 7 11 7 11 -20 0z"/>
<path d="M5034 1985 c-57 -29 -96 -79 -101 -129 -5 -44 11 -106 27 -106 4 0
43 36 86 81 93 95 114 110 114 78 0 -13 -29 -52 -77 -101 -62 -63 -75 -81 -63
-88 21 -13 35 -12 77 5 46 19 69 40 99 87 28 43 30 68 10 106 -36 70 -110 98
-172 67z"/>
<path d="M3996 5674 c-6 -15 -4 -15 11 -3 10 7 20 15 22 16 2 2 -3 3 -11 3 -9
0 -19 -7 -22 -16z"/>
<path d="M3962 5644 c-7 -8 -8 -14 -3 -14 10 0 25 19 20 25 -2 1 -10 -3 -17
-11z"/>
<path d="M4044 5607 c-10 -12 -15 -19 -10 -15 5 4 15 0 23 -10 13 -16 14 -15
10 5 -3 12 0 24 6 26 8 2 8 5 0 10 -6 4 -19 -3 -29 -16z"/>
<path d="M4332 5620 c3 -8 -2 -24 -10 -35 -13 -16 -11 -15 8 2 20 19 22 25 11
35 -11 11 -13 10 -9 -2z"/>
<path d="M3965 5530 c-3 -5 -2 -10 4 -10 5 0 13 5 16 10 3 6 2 10 -4 10 -5 0
-13 -4 -16 -10z"/>
<path d="M5715 5080 c-3 -5 -1 -10 4 -10 6 0 11 5 11 10 0 6 -2 10 -4 10 -3 0
-8 -4 -11 -10z"/>
<path d="M5705 5050 c3 -5 8 -10 11 -10 2 0 4 5 4 10 0 6 -5 10 -11 10 -5 0
-7 -4 -4 -10z"/>
<path d="M5600 4956 c0 -2 8 -10 18 -17 15 -13 16 -12 3 4 -13 16 -21 21 -21
13z"/>
<path d="M5424 4904 c-18 -14 -18 -15 4 -4 12 6 22 13 22 15 0 8 -5 6 -26 -11z"/>
<path d="M5465 4870 c-3 -5 -2 -10 4 -10 5 0 13 5 16 10 3 6 2 10 -4 10 -5 0
-13 -4 -16 -10z"/>
<path d="M5406 4839 c-15 -17 -25 -34 -22 -36 7 -7 36 23 36 35 0 6 6 12 13
15 6 2 9 7 6 11 -4 4 -19 -7 -33 -25z"/>
<path d="M5349 4776 c-3 -22 -11 -32 -33 -39 -20 -7 -30 -6 -36 2 -5 9 -10 8
-19 -3 -10 -11 -8 -17 11 -30 26 -18 38 -20 38 -6 0 6 -6 10 -14 10 -8 0 -17
4 -20 8 -3 5 8 6 25 4 16 -2 29 -9 30 -16 0 -6 4 -1 9 11 5 12 21 25 35 29 14
3 25 12 25 20 0 17 -30 19 -31 2 -1 -7 -4 -2 -9 12 l-7 25 -4 -29z"/>
<path d="M5295 4760 c-3 -5 -1 -10 4 -10 6 0 11 5 11 10 0 6 -2 10 -4 10 -3 0
-8 -4 -11 -10z"/>
<path d="M5223 4676 c-27 -13 -29 -24 -7 -33 8 -3 25 4 40 17 13 13 24 18 24
11 0 -7 5 -9 11 -5 8 4 7 9 -2 15 -18 11 -38 10 -66 -5z"/>
<path d="M5177 4664 c-3 -5 1 -15 9 -22 16 -14 18 -5 5 17 -5 7 -11 9 -14 5z"/>
<path d="M5142 4619 c-8 -11 -9 -18 -3 -14 6 3 11 1 11 -5 0 -7 -7 -9 -17 -6
-23 9 -65 -32 -57 -56 3 -10 -2 -25 -11 -34 -20 -20 -33 -10 -15 11 7 8 8 15
2 15 -16 0 -33 -27 -26 -44 4 -12 10 -13 24 -6 10 6 27 7 37 4 13 -4 14 -3 5
4 -11 7 -8 15 12 39 20 24 23 33 13 43 -10 10 -8 11 7 3 15 -8 27 -6 50 8 22
13 33 15 43 7 11 -8 12 -7 7 6 -4 9 -17 16 -34 16 -18 0 -30 6 -32 15 -2 12
-6 11 -16 -6z m-37 -59 c3 -5 -1 -10 -10 -10 -9 0 -13 5 -10 10 3 6 8 10 10
10 2 0 7 -4 10 -10z"/>
<path d="M5230 4621 c0 -4 11 -6 25 -3 14 2 25 6 25 8 0 2 -11 4 -25 4 -14 0
-25 -4 -25 -9z"/>
<path d="M4992 4469 c2 -7 10 -15 17 -17 8 -3 12 1 9 9 -2 7 -10 15 -17 17 -8
3 -12 -1 -9 -9z"/>
<path d="M5037 4443 c-4 -3 -7 -11 -7 -17 0 -6 5 -5 12 2 6 6 9 14 7 17 -3 3
-9 2 -12 -2z"/>
<path d="M4993 4413 c9 -9 20 -13 24 -9 4 4 1 11 -7 16 -25 16 -35 11 -17 -7z"/>
<path d="M4934 4393 c-22 -35 -46 -53 -58 -45 -5 3 -7 -2 -3 -10 3 -10 0 -15
-11 -14 -11 1 -17 -6 -17 -19 0 -12 -8 -21 -20 -23 -29 -6 -55 -36 -45 -52 12
-19 38 -21 44 -3 4 11 2 13 -9 10 -8 -4 -17 -2 -20 3 -4 6 -1 10 5 10 6 0 8 5
5 10 -3 6 -1 10 4 10 6 0 11 -4 11 -10 0 -5 5 -10 10 -10 6 0 10 6 10 14 0 8
18 27 40 43 22 15 40 33 40 39 0 7 9 14 20 17 14 4 19 12 18 31 -1 14 -3 26
-4 26 -1 0 -10 -12 -20 -27z"/>
<path d="M4980 4390 c8 -5 20 -10 25 -10 6 0 3 5 -5 10 -8 5 -19 10 -25 10 -5
0 -3 -5 5 -10z"/>
<path d="M4965 4359 c-11 -16 -1 -19 13 -3 7 8 8 14 3 14 -5 0 -13 -5 -16 -11z"/>
<path d="M4803 4182 c1 -14 5 -18 11 -12 7 7 6 14 -1 21 -9 9 -12 7 -10 -9z"/>
<path d="M4701 4173 c-12 -14 -12 -15 0 -11 8 3 19 -2 25 -10 7 -10 18 -13 29
-8 17 6 17 8 -3 26 -25 24 -33 24 -51 3z"/>
<path d="M3142 3500 c-50 -31 -285 -267 -277 -280 3 -6 1 -9 -7 -8 -7 2 -12
-3 -10 -10 1 -8 -2 -11 -7 -8 -5 4 -45 -28 -88 -70 -70 -69 -72 -71 -18 -27
33 28 70 53 83 57 12 4 20 10 18 14 -2 4 17 8 42 8 84 3 127 21 189 80 32 30
84 78 115 106 40 36 60 61 64 84 13 69 -37 95 -104 54z"/>
<path d="M1822 1771 c-20 -12 -11 -55 12 -59 27 -6 48 25 35 49 -10 20 -26 24
-47 10z"/>
<path d="M2962 1248 c-26 -26 -2 -75 31 -62 22 8 31 42 17 59 -15 18 -32 19
-48 3z"/>
</g>
</svg>
